<?xml version="1.0" encoding="iso-8859-1"?><!DOCTYPE svg PUBLIC "-//W3C//DTD SVG 1.1//EN" "http://www.w3.org/Graphics/SVG/1.1/DTD/svg11.dtd"><svg viewBox="0 0 682 682" xmlns="http://www.w3.org/2000/svg" xmlns:xlink="http://www.w3.org/1999/xlink"><style>:root>svg{display:none}:root>svg:target{display:block}</style><svg viewBox="0 0 477.175 477.175" id="back" xmlns="http://www.w3.org/2000/svg"><path d="M145.188 238.575l215.5-215.5c5.3-5.3 5.3-13.8 0-19.1s-13.8-5.3-19.1 0l-225.1 225.1c-5.3 5.3-5.3 13.8 0 19.1l225.1 225c2.6 2.6 6.1 4 9.5 4s6.9-1.3 9.5-4c5.3-5.3 5.3-13.8 0-19.1l-215.4-215.5z"/></svg><svg viewBox="0 0 480 480" id="calendar" xmlns="http://www.w3.org/2000/svg"><path d="M399.832 54.398c-.062-.277-.23-.496-.312-.757a7.369 7.369 0 00-.536-1.297 7.668 7.668 0 00-.894-1.336 8.164 8.164 0 00-.914-.961 7.263 7.263 0 00-1.313-.879 8 8 0 00-1.246-.61 7.986 7.986 0 00-1.601-.328A8.133 8.133 0 00392 48h-40.336C349.602 20.152 336.68 0 320 0s-29.602 20.152-31.664 48h-16.672C269.602 20.152 256.68 0 240 0s-29.602 20.152-31.664 48h-16.672C189.602 20.152 176.68 0 160 0s-29.602 20.152-31.664 48h-16.672C109.602 20.152 96.68 0 80 0S50.398 20.152 48.336 48H8a8 8 0 00-8 8v416a8 8 0 008 8h384a8 8 0 008-8v-24h72a8 8 0 007.832-9.602zM320 16c5.777 0 13.84 12.258 15.617 32h-31.203c1.746-19.742 9.809-32 15.586-32zm-80 0c5.777 0 13.84 12.258 15.617 32h-31.203c1.746-19.742 9.809-32 15.586-32zm-80 0c5.777 0 13.84 12.258 15.617 32h-31.203c1.746-19.742 9.809-32 15.586-32zm-80 0c5.777 0 13.84 12.258 15.617 32H64.414C66.16 28.258 74.223 16 80 16zM16 64h32.336C50.398 91.848 63.32 112 80 112a8 8 0 000-16c-5.777 0-13.84-12.258-15.617-32h63.953c2.09 27.848 14.984 48 31.664 48a8 8 0 000-16c-5.777 0-13.84-12.258-15.617-32h63.953c2.09 27.848 14.984 48 31.664 48a8 8 0 000-16c-5.777 0-13.84-12.258-15.617-32h63.953c2.09 27.848 14.984 48 31.664 48a8 8 0 000-16c-5.777 0-13.84-12.258-15.617-32H384v80H16zm368 400H16V160h368zm16-32V133.602L462.168 432zm0 0"/><path d="M176 288h-32a8 8 0 00-8 8v32a8 8 0 008 8h32a8 8 0 008-8v-32a8 8 0 00-8-8zm-8 32h-16v-16h16zm0 0M256 288h-32a8 8 0 00-8 8v32a8 8 0 008 8h32a8 8 0 008-8v-32a8 8 0 00-8-8zm-8 32h-16v-16h16zm0 0M96 288H64a8 8 0 00-8 8v32a8 8 0 008 8h32a8 8 0 008-8v-32a8 8 0 00-8-8zm-8 32H72v-16h16zm0 0M176 368h-32a8 8 0 00-8 8v32a8 8 0 008 8h32a8 8 0 008-8v-32a8 8 0 00-8-8zm-8 32h-16v-16h16zm0 0M256 368h-32a8 8 0 00-8 8v32a8 8 0 008 8h32a8 8 0 008-8v-32a8 8 0 00-8-8zm-8 32h-16v-16h16zm0 0M96 368H64a8 8 0 00-8 8v32a8 8 0 008 8h32a8 8 0 008-8v-32a8 8 0 00-8-8zm-8 32H72v-16h16zm0 0M176 208h-32a8 8 0 00-8 8v32a8 8 0 008 8h32a8 8 0 008-8v-32a8 8 0 00-8-8zm-8 32h-16v-16h16zm0 0M256 208h-32a8 8 0 00-8 8v32a8 8 0 008 8h32a8 8 0 008-8v-32a8 8 0 00-8-8zm-8 32h-16v-16h16zm0 0M336 288h-32a8 8 0 00-8 8v32a8 8 0 008 8h32a8 8 0 008-8v-32a8 8 0 00-8-8zm-8 32h-16v-16h16zm0 0M336 368h-32a8 8 0 00-8 8v32a8 8 0 008 8h32a8 8 0 008-8v-32a8 8 0 00-8-8zm-8 32h-16v-16h16zm0 0M336 208h-32a8 8 0 00-8 8v32a8 8 0 008 8h32a8 8 0 008-8v-32a8 8 0 00-8-8zm-8 32h-16v-16h16zm0 0M96 208H64a8 8 0 00-8 8v32a8 8 0 008 8h32a8 8 0 008-8v-32a8 8 0 00-8-8zm-8 32H72v-16h16zm0 0"/></svg><svg viewBox="0 0 368.554 368.554" id="experiment-results" xmlns="http://www.w3.org/2000/svg"><path d="M292.371 17.347h-44.344V0h-127.5v17.347H76.183c-20.005 0-36.281 16.275-36.281 36.281v278.646c0 20.005 16.275 36.281 36.281 36.281h216.188c20.005 0 36.281-16.275 36.281-36.281V53.627c0-20.005-16.276-36.28-36.281-36.28zM135.527 15h97.5v19.693h-97.5V15zm178.125 317.273c0 11.734-9.546 21.281-21.281 21.281H76.183c-11.734 0-21.281-9.546-21.281-21.281V53.627c0-11.734 9.546-21.281 21.281-21.281h44.344v17.347h127.5V32.347h44.344c11.734 0 21.281 9.546 21.281 21.281v278.645z"/><path d="M249.473 169.358l-7.8 11.849c-1.11 1.686-2.794 1.882-3.467 1.888-.691.001-2.36-.161-3.5-1.826l-.217-.317c-3.948-5.77-10.465-8.865-17.431-8.29-6.967.579-12.883 4.711-15.824 11.053l-4.166 8.982c-1.124 2.426-3.309 2.496-4.194 2.412-.887-.083-3.02-.555-3.677-3.146l-9.067-35.742c-2.199-8.67-9.665-14.475-18.598-14.475h-.107c-8.98.046-16.437 5.941-18.554 14.668l-8.178 33.702c-.642 2.646-2.813 3.112-3.716 3.19-.901.076-3.122-.009-4.208-2.507l-8.062-18.541a19.187 19.187 0 00-17.603-11.542H79.485v15h21.619c1.671 0 3.181.99 3.847 2.523l8.062 18.541c3.343 7.688 10.895 12.188 19.253 11.47 8.353-.721 15.027-6.451 17.003-14.598l8.178-33.702c.698-2.878 3.068-3.201 4.055-3.206 1.025.004 3.36.293 4.088 3.164l9.066 35.742c2.024 7.979 8.628 13.629 16.825 14.393.624.059 1.243.087 1.857.087 7.461 0 14.138-4.223 17.337-11.123l4.166-8.982c.927-1.998 2.727-2.354 3.458-2.416.728-.056 2.565-.006 3.809 1.812l.217.317a19.161 19.161 0 0015.84 8.355h.173a19.162 19.162 0 0015.861-8.64L262 177.604a4.183 4.183 0 013.503-1.888h23.563v-15h-23.563a19.147 19.147 0 00-16.03 8.642zM79.485 271.777h84.688v15H79.485zM79.485 308.443H248.86v15H79.485z"/></svg><svg viewBox="0 0 512 512" id="facebook" xmlns="http://www.w3.org/2000/svg"><path d="M475.074 0H36.926C16.53 0 0 16.531 0 36.926v438.148C0 495.47 16.531 512 36.926 512H273.5V314H207v-77.5h66.5v-57.035c0-66.14 40.379-102.14 99.379-102.14 28.258 0 52.543 2.105 59.621 3.046V149.5h-40.684c-32.101 0-38.316 15.254-38.316 37.64v49.36h76.75l-10 77.5H353.5v198h121.574C495.47 512 512 495.469 512 475.074V36.926C512 16.53 495.469 0 475.074 0zm0 0"/></svg><svg viewBox="-74 0 512 512" id="flask" xmlns="http://www.w3.org/2000/svg"><path d="M361.414 443.59l-108.27-263.902a120.42 120.42 0 01-9.05-45.91V64.02c0-7.512 2.926-14.575 8.238-19.887 6.477-6.477 10.047-15.09 10.047-24.25V10c0-5.523-4.48-10-10-10H112.758c-5.524 0-10 4.477-10 10v9.883c0 9.16 3.566 17.773 10.043 24.25 5.312 5.312 8.238 12.375 8.238 19.89v69.754c0 15.825-3.043 31.27-9.05 45.91l-29.75 72.516-.036.082L3.72 443.59a49.507 49.507 0 004.695 46.441A49.503 49.503 0 0049.598 512h265.937a49.51 49.51 0 0041.188-21.969 49.518 49.518 0 004.691-46.441zM130.492 187.277c7-17.058 10.547-35.058 10.547-53.5V64.02c0-12.852-5.004-24.938-14.094-34.028A14.211 14.211 0 01122.758 20h119.62a14.206 14.206 0 01-4.19 9.992c-9.086 9.09-14.094 21.172-14.094 34.028v69.753c0 18.442 3.55 36.442 10.547 53.5l24.144 58.852H106.348zM340.11 478.891C334.523 487.223 325.566 492 315.535 492H49.598c-10.028 0-18.985-4.777-24.575-13.11-4.214-6.285-5.824-13.574-4.73-20.761H36.77c5.52 0 10-4.48 10-10 0-5.524-4.48-10-10-10h-9.188l11.484-28h16.868c5.523 0 10-4.48 10-10 0-5.524-4.477-10-10-10h-8.66l11.484-28h17.344c5.523 0 10-4.48 10-10 0-5.524-4.477-10-10-10h-9.137l11.488-28h17.813c5.523 0 10-4.48 10-10 0-5.524-4.477-10-10-10h-9.61l11.489-28h168.843l75.922 185.055c3.805 9.277 2.785 19.379-2.8 27.707zm0 0"/><path d="M312.031 444.215a10.001 10.001 0 00-18.511 7.574l.054.125a10.002 10.002 0 0013.043 5.469c5.11-2.094 7.559-7.934 5.465-13.043zm0 0M297.898 409.762l-35.812-87.29c-2.094-5.109-7.934-7.554-13.047-5.456-5.11 2.093-7.55 7.937-5.457 13.047l35.813 87.289c1.585 3.87 5.316 6.207 9.257 6.207a9.925 9.925 0 003.79-.75c5.109-2.094 7.554-7.938 5.456-13.047zm0 0"/></svg><svg viewBox="0 -24 511.999 511" id="heart" xmlns="http://www.w3.org/2000/svg"><path d="M50 262.598c-5.52 0-10 4.48-10 10s4.48 10 10 10 10-4.48 10-10-4.48-10-10-10zm0 0"/><path d="M459.617 297.273l-94.273 32.41c.418-2.32.652-4.687.652-7.09 0-22.054-17.941-40-40-40h-64.758c-1.718 0-3.414-.44-4.91-1.284l-52.832-29.715a70.059 70.059 0 00-34.328-9h-70.89C94.151 230.957 83.034 222.598 70 222.598H10c-5.523 0-10 4.476-10 10v179.996c0 5.523 4.477 10 10 10h60c12.738 0 23.66-8.004 27.996-19.246 11.32 1.406 24.418 4.754 32.649 9.691l52.296 31.379a127.509 127.509 0 0065.606 18.176c18.312 0 36.055-3.844 52.738-11.422l186.645-82.184c20.672-8.386 30.879-33.187 19.062-55.047-8.691-16.086-29.047-23.242-47.375-16.668zM80 392.641c-.023 5.492-4.504 9.953-10 9.953H20V242.598h50c5.512 0 10 4.484 10 10zm400.332-42.149c-.105.04-.21.086-.316.13l-186.957 82.32c-14.082 6.406-29.059 9.652-44.512 9.652-19.485 0-38.61-5.297-55.313-15.324l-52.3-31.38c-11.196-6.714-27.227-10.808-40.934-12.449V262.598h69.168a50.029 50.029 0 0124.52 6.425l52.832 29.715a30.045 30.045 0 0014.718 3.86h64.758c11.027 0 20 8.968 20 20 0 10.988-8.976 20-20 20H224.34c-5.524 0-10 4.476-10 10 0 5.52 4.476 9.996 10 9.996h101.656a39.922 39.922 0 0018.746-4.684l121.59-41.797c8.961-3.234 19.094-.015 23.066 7.336 5.957 11.02 1.032 23-9.066 27.043zm0 0M291.246 243.055c1.883 1.629 4.215 2.441 6.55 2.441s4.673-.812 6.552-2.441c81.59-70.711 132.058-106.496 132.058-162.106C436.406 36.957 405.262.5 361.508.5c-28.735 0-50.738 16.563-64.91 41.418C282.457 17.118 260.477.5 231.699.5c-33.496 0-61.5 21.707-71.344 55.297-1.554 5.3 1.485 10.855 6.786 12.41 5.3 1.555 10.855-1.484 12.406-6.785C186.832 36.562 207.3 20.5 231.699 20.5c28.528 0 48.54 25.332 55.262 48.918a9.999 9.999 0 0019.273 0c.137-.488 14.028-48.918 55.274-48.918 31.297 0 54.898 25.984 54.898 60.45 0 44.484-43.484 76.554-118.617 141.335-45.777-39.312-82.14-66.984-102.809-94.055-3.351-4.39-9.625-5.234-14.015-1.882-4.39 3.351-5.23 9.625-1.883 14.02 23.297 30.51 62.625 59.745 112.164 102.687zm0 0"/><path d="M169 88.598c-5.52 0-10 4.48-10 10s4.48 10 10 10 10-4.48 10-10-4.48-10-10-10zm0 0"/></svg><svg viewBox="0 0 306.773 306.773" id="house" xmlns="http://www.w3.org/2000/svg"><path d="M302.93 149.794a14.627 14.627 0 00-1.199-20.932L164.63 8.898c-6.223-5.442-16.2-5.328-22.292.257L4.771 135.258c-6.092 5.585-6.391 14.947-.662 20.902l3.449 3.592c5.722 5.955 14.971 6.665 20.645 1.581l10.281-9.207v134.792c0 8.27 6.701 14.965 14.965 14.965h53.624c8.264 0 14.965-6.695 14.965-14.965v-94.3h68.398v94.3c-.119 8.264 5.794 14.959 14.058 14.959h56.828c8.264 0 14.965-6.695 14.965-14.965V154.024s2.84 2.488 6.343 5.567c3.497 3.073 10.842.609 16.403-5.513l3.897-4.284z"/></svg><svg viewBox="0 0 512 512" id="instagram" xmlns="http://www.w3.org/2000/svg"><path d="M301 256c0 24.852-20.148 45-45 45s-45-20.148-45-45 20.148-45 45-45 45 20.148 45 45zm0 0"/><path d="M332 120H180c-33.086 0-60 26.914-60 60v152c0 33.086 26.914 60 60 60h152c33.086 0 60-26.914 60-60V180c0-33.086-26.914-60-60-60zm-76 211c-41.355 0-75-33.645-75-75s33.645-75 75-75 75 33.645 75 75-33.645 75-75 75zm86-146c-8.285 0-15-6.715-15-15s6.715-15 15-15 15 6.715 15 15-6.715 15-15 15zm0 0"/><path d="M377 0H135C60.562 0 0 60.563 0 135v242c0 74.438 60.563 135 135 135h242c74.438 0 135-60.563 135-135V135C512 60.562 451.437 0 377 0zm45 332c0 49.625-40.375 90-90 90H180c-49.625 0-90-40.375-90-90V180c0-49.625 40.375-90 90-90h152c49.625 0 90 40.375 90 90zm0 0"/></svg><svg viewBox="0 0 511.998 511.998" id="intravenous" xmlns="http://www.w3.org/2000/svg"><path d="M387.797 105.457a217.974 217.974 0 00-60.662-16.989 32.765 32.765 0 004.932-17.32c0-14.692-9.663-27.167-22.967-31.412V31.45h57.065c5.523 0 10-4.477 10-10s-4.477-10-10-10H309.1V10c-.001-5.523-4.478-10-10.001-10s-10 4.477-10 10v1.454H129.524c-15.076 0-27.34 12.265-27.34 27.34v425.44c0 15.076 12.265 27.34 27.34 27.34s27.34-12.265 27.34-27.34V38.793c0-2.543-.356-5.002-1.009-7.34H289.1v8.286c-13.303 4.245-22.967 16.719-22.967 31.412 0 6.35 1.809 12.283 4.932 17.319a218.025 218.025 0 00-60.663 16.989c-13.375 5.945-22.017 19.244-22.017 33.881v227.64c0 14.637 8.643 27.937 22.018 33.881a217.903 217.903 0 0058.915 16.746V450.2c0 9.487 7.354 17.273 16.659 17.998v13.217c0 16.864 13.72 30.583 30.583 30.583h58.774c5.523 0 10-4.477 10-10s-4.477-10-10-10H316.56c-5.836 0-10.583-4.748-10.583-10.583v-13.146h4.836c9.963 0 18.069-8.105 18.069-18.069v-6.792c5.472-.059 9.891-4.508 9.891-9.995s-4.419-9.936-9.891-9.995v-5.814c20.154-2.766 40.004-8.338 58.915-16.744 13.375-5.945 22.018-19.245 22.018-33.882v-227.64c0-14.637-8.643-27.937-22.018-33.881zM136.863 464.233c0 4.047-3.292 7.34-7.34 7.34s-7.34-3.293-7.34-7.34V38.793c0-4.047 3.293-7.34 7.34-7.34s7.34 3.293 7.34 7.34v425.44zM291.364 60.768c1.834 2.236 4.617 3.663 7.734 3.663s5.901-1.427 7.734-3.663c3.17 2.367 5.234 6.134 5.234 10.383 0 7.15-5.817 12.967-12.967 12.967s-12.967-5.817-12.967-12.967c0-4.25 2.064-8.017 5.232-10.383zm17.518 362.648h-3.014c-5.523 0-10 4.477-10 10s4.477 10 10 10h3.014v4.855h-19.564v-28.848c3.259.146 6.52.233 9.782.233 3.261 0 6.523-.088 9.782-.233v3.993zm80.931-180.255h-23.649c-5.523 0-10 4.477-10 10s4.477 10 10 10h23.649v103.82c0 6.742-3.98 12.868-10.141 15.606a197.958 197.958 0 01-50.791 14.82 199.077 199.077 0 01-20 2.005c-6.517.321-13.047.321-19.564 0a199.077 199.077 0 01-20-2.005 197.936 197.936 0 01-50.792-14.82 17.093 17.093 0 01-10.141-15.605v-13.019h32.062c5.523 0 10-4.477 10-10s-4.477-10-10-10h-32.062v-40.301h32.062c5.523 0 10-4.477 10-10s-4.477-10-10-10h-32.062v-10.5h77.779c5.523 0 10-4.477 10-10s-4.477-10-10-10h-77.779v-9.801h32.062c5.523 0 10-4.477 10-10s-4.477-10-10-10h-32.062V173.06h32.062c5.523 0 10-4.477 10-10s-4.477-10-10-10h-32.062v-13.718a17.09 17.09 0 0110.142-15.606c25.603-11.381 53.088-17.071 80.573-17.071 27.485-.001 54.97 5.689 80.573 17.07a17.092 17.092 0 0110.141 15.606v103.82z"/><path d="M335.398 249.34a9.87 9.87 0 00-.92-1.73 9.57 9.57 0 00-1.24-1.52 9.57 9.57 0 00-1.52-1.24 10.098 10.098 0 00-3.6-1.49 9.898 9.898 0 00-3.91 0c-.64.13-1.27.32-1.87.57-.6.25-1.18.56-1.72.92-.55.36-1.06.78-1.53 1.24-.46.46-.87.97-1.24 1.52a9.87 9.87 0 00-.92 1.73 9.84 9.84 0 00-.76 3.82c0 .65.06 1.31.19 1.96.13.63.32 1.26.57 1.87a10.146 10.146 0 002.16 3.24c.47.46.98.88 1.53 1.25.54.36 1.12.67 1.72.92.6.25 1.23.44 1.87.57.65.13 1.3.19 1.96.19a9.84 9.84 0 003.82-.76c.6-.25 1.19-.56 1.73-.92.55-.37 1.06-.79 1.52-1.25.46-.46.88-.97 1.24-1.52.36-.54.67-1.12.92-1.72.25-.61.44-1.24.57-1.87.13-.65.2-1.31.2-1.96 0-.65-.07-1.31-.2-1.95-.129-.64-.32-1.27-.57-1.87z"/></svg><svg viewBox="0 0 512 512" id="location" xmlns="http://www.w3.org/2000/svg"><path d="M256 0C153.755 0 70.573 83.182 70.573 185.426c0 126.888 165.939 313.167 173.004 321.035 6.636 7.391 18.222 7.378 24.846 0 7.065-7.868 173.004-194.147 173.004-321.035C441.425 83.182 358.244 0 256 0zm0 278.719c-51.442 0-93.292-41.851-93.292-93.293S204.559 92.134 256 92.134s93.291 41.851 93.291 93.293-41.85 93.292-93.291 93.292z"/></svg><svg viewBox="0 0 36.822 36.822" id="medical-result" xmlns="http://www.w3.org/2000/svg"><path d="M29.343 36.822H7.479a2.503 2.503 0 01-2.5-2.5V6.029c0-1.378 1.122-2.5 2.5-2.5h3.682a.5.5 0 010 1H7.479c-.827 0-1.5.673-1.5 1.5v28.293c0 .827.673 1.5 1.5 1.5h21.863c.827 0 1.5-.673 1.5-1.5V6.029c0-.827-.673-1.5-1.5-1.5H25.66a.5.5 0 010-1h3.682c1.378 0 2.5 1.122 2.5 2.5v28.293a2.501 2.501 0 01-2.499 2.5z"/><path d="M25.661 8.396h-14.5a.5.5 0 01-.5-.5V2.688a.5.5 0 01.5-.5h4.609C16.005.944 17.1 0 18.411 0s2.406.944 2.641 2.188h4.609a.5.5 0 01.5.5v5.209a.499.499 0 01-.5.499zm-14-1h13.5V3.188h-4.563a.5.5 0 01-.5-.5 1.688 1.688 0 00-3.375 0 .5.5 0 01-.5.5H11.66v4.208zM16.661 27.356a.5.5 0 01-.457-.297l-2.368-5.33H9.661a.5.5 0 010-1h4.5a.5.5 0 01.457.297l1.99 4.479 3.582-10.148a.502.502 0 01.447-.333.48.48 0 01.478.288l2.532 5.418h3.515a.5.5 0 010 1h-3.833a.5.5 0 01-.453-.288l-2.149-4.599-3.593 10.181a.5.5 0 01-.452.333l-.021-.001z"/></svg><svg viewBox="-21 -28 682.667 682" id="messenger" xmlns="http://www.w3.org/2000/svg"><path d="M545.602 84.629C485.242 30 405.125-.082 320-.082S154.758 30 94.398 84.628C33.523 139.728 0 213.134 0 291.333c0 58.578 18.863 114.742 54.633 162.941L27.14 626.188l173.918-64.247C238.887 575.75 278.863 582.75 320 582.75c85.125 0 165.242-30.086 225.602-84.715C606.477 442.938 640 369.531 640 291.332s-33.523-151.605-94.398-206.703zM348.047 375.027l-70.738-55.343-169.204 66.964 193.606-192.562 71.594 57.168 154.875-60.047zm0 0"/></svg><svg viewBox="0 0 477.175 477.175" id="next" xmlns="http://www.w3.org/2000/svg"><path d="M360.731 229.075l-225.1-225.1c-5.3-5.3-13.8-5.3-19.1 0s-5.3 13.8 0 19.1l215.5 215.5-215.5 215.5c-5.3 5.3-5.3 13.8 0 19.1 2.6 2.6 6.1 4 9.5 4 3.4 0 6.9-1.3 9.5-4l225.1-225.1c5.3-5.2 5.3-13.8.1-19z"/></svg><svg viewBox="0 0 300 300" id="phone" xmlns="http://www.w3.org/2000/svg"><circle cx="150.001" cy="226.085" r="11.718"/><path d="M182.691 68.248h-65.382c-3.665 0-6.647 2.843-6.647 6.331v123.592c0 3.491 2.98 6.331 6.647 6.331h65.382c3.665 0 6.647-2.843 6.647-6.331V74.579c-.002-3.491-2.982-6.331-6.647-6.331z"/><path d="M149.996 0C67.157 0 .001 67.161.001 149.997S67.157 300 149.996 300s150.003-67.163 150.003-150.003S232.835 0 149.996 0zm58.358 224.021c0 11.458-9.29 20.749-20.749 20.749h-75.214c-11.458 0-20.749-9.29-20.749-20.749V75.323c0-11.458 9.29-20.749 20.749-20.749h75.214c11.458 0 20.749 9.29 20.749 20.749v148.698z"/></svg><svg viewBox="0 0 512 512" id="stretcher" xmlns="http://www.w3.org/2000/svg"><path d="M502 169.735h-1.014a25.1 25.1 0 00.516-5.073v-18.144c0-13.826-11.248-25.074-25.073-25.074h-57.51v-10.286c0-13.833-11.254-25.087-25.087-25.087H240.363c-13.833 0-25.087 11.254-25.087 25.087v10.286H184.81a113.352 113.352 0 01-31.256-4.393l-22.597-6.481c-5.306-1.522-10.847 1.546-12.369 6.855-1.522 5.309 1.547 10.847 6.855 12.369l22.597 6.481a133.308 133.308 0 0036.77 5.168h30.466v28.291H184.81a113.325 113.325 0 01-31.256-4.394l-109.76-31.48v-27.484l9.317 2.672c5.312 1.523 10.847-1.546 12.37-6.854 1.522-5.309-1.546-10.847-6.854-12.37l-10.491-3.009c-5.812-1.667-11.915-.537-16.743 3.102-4.829 3.639-7.599 9.193-7.599 15.239v29.398c0 8.465 5.683 16.007 13.82 18.34l58.715 16.84H60.915c-16.224 0-29.422 13.198-29.422 29.421v1.504C13.429 205.148 0 221.496 0 240.929c0 22.88 18.613 41.493 41.493 41.493s41.494-18.614 41.494-41.494c0-19.432-13.43-35.78-31.494-40.268v-1.504c0-5.195 4.227-9.421 9.422-9.421h50.983l146.375 73.883-51.719 25.793h-44.335c-11.881 0-21.547 9.666-21.547 21.547v33.218c-18.064 4.488-31.494 20.835-31.494 40.268 0 22.879 18.614 41.493 41.494 41.493s41.493-18.614 41.493-41.493c0-19.432-13.429-35.78-31.493-40.268v-2.721h238.247v2.721c-18.064 4.488-31.493 20.835-31.493 40.268 0 22.879 18.613 41.493 41.493 41.493s41.493-18.614 41.493-41.493c0-19.432-13.429-35.78-31.493-40.268v-33.218c0-11.881-9.666-21.547-21.548-21.547h-43.613l-50.888-25.686 148.361-73.99H502c5.522 0 10-4.477 10-10s-4.478-10-10-10zM62.987 240.929c0 11.852-9.643 21.494-21.494 21.494-11.851 0-21.493-9.643-21.493-21.494 0-10.07 6.97-18.52 16.332-20.841 1.508.912 3.27 1.447 5.161 1.447s3.653-.535 5.161-1.447c9.363 2.322 16.333 10.771 16.333 20.841zM235.276 111.16a5.093 5.093 0 015.087-5.087h153.469a5.093 5.093 0 015.087 5.087v10.286H235.276V111.16zm0 30.285h163.643v28.291H235.276v-28.291zm-63.111 242.999c0 11.852-9.642 21.493-21.493 21.493s-21.494-9.642-21.494-21.493c0-8.241 4.668-15.405 11.494-19.01v2.213c0 5.523 4.478 10 10 10s10-4.477 10-10v-2.213c6.825 3.606 11.493 10.769 11.493 19.01zm236.754-6.797c5.522 0 10-4.477 10-10v-2.213c6.825 3.606 11.493 10.769 11.493 19.01 0 11.852-9.642 21.493-21.493 21.493s-21.493-9.642-21.493-21.493c0-8.241 4.668-15.404 11.493-19.01v2.213c0 5.523 4.478 10 10 10zm-15.537-68.235h3.989c.854 0 1.548.694 1.548 1.547v10.497H160.672v-10.497c0-.853.694-1.547 1.547-1.547h231.163zm-84.009-20h-58.006l29.177-14.551 28.829 14.551zm-28.775-36.927l-124.316-62.749h250.136l-125.82 62.749zm200.904-87.822a5.078 5.078 0 01-5.073 5.073h-57.51v-28.291h57.51a5.079 5.079 0 015.073 5.074v18.144z"/><path d="M82.109 113.436a9.874 9.874 0 002.171 3.25c.46.46.97.88 1.52 1.24.54.36 1.12.67 1.72.92.61.25 1.24.45 1.88.57.641.13 1.301.2 1.95.2.65 0 1.311-.07 1.95-.2.64-.12 1.27-.32 1.87-.57a9.86 9.86 0 001.729-.92 9.533 9.533 0 001.521-1.24c.46-.46.88-.97 1.24-1.52.359-.54.67-1.12.92-1.73.25-.6.45-1.23.569-1.87.131-.64.2-1.3.2-1.95 0-.65-.069-1.31-.2-1.95a9.617 9.617 0 00-.569-1.88c-.25-.6-.56-1.181-.92-1.72a9.57 9.57 0 00-1.24-1.52 9.86 9.86 0 00-3.25-2.17c-.601-.25-1.23-.44-1.87-.57a9.847 9.847 0 00-3.9 0c-.64.13-1.27.32-1.88.57-.6.25-1.18.56-1.72.92a10.092 10.092 0 00-2.77 2.77c-.36.54-.671 1.12-.921 1.72-.25.61-.439 1.24-.569 1.88-.13.64-.19 1.3-.19 1.95a9.915 9.915 0 00.759 3.82z"/></svg><svg viewBox="0 0 485.213 485.212" id="telephone" xmlns="http://www.w3.org/2000/svg"><path d="M242.607 0C108.629 0 .001 108.628.001 242.606c0 133.976 108.628 242.606 242.606 242.606s242.604-108.631 242.604-242.606C485.212 108.628 376.585 0 242.607 0zm128.112 353.989l-19.425 19.429c-3.468 3.463-13.623 5.624-13.949 5.624-61.452.536-120.621-23.602-164.095-67.08-43.593-43.618-67.759-102.998-67.11-164.657 0-.028 2.224-9.892 5.689-13.324l19.424-19.427c7.108-7.141 20.762-10.368 30.327-7.168l4.086 1.363c9.537 3.197 19.55 13.742 22.185 23.457l9.771 35.862c2.635 9.743-.919 23.604-8.025 30.712l-12.97 12.972c12.734 47.142 49.723 84.138 96.873 96.903l12.965-12.975c7.141-7.141 20.997-10.692 30.719-8.061l35.857 9.806c9.717 2.67 20.26 12.62 23.456 22.154l1.363 4.145c3.168 9.538-.034 23.189-7.141 30.265z"/></svg><svg viewBox="0 0 401.998 401.998" id="telephone-2" xmlns="http://www.w3.org/2000/svg"><path d="M401.129 311.475c-1.137-3.426-8.371-8.473-21.697-15.129-3.61-2.098-8.754-4.949-15.41-8.566a1437.412 1437.412 0 01-18.13-9.996 605.612 605.612 0 01-15.276-8.846c-.76-.571-3.139-2.234-7.136-5-4.001-2.758-7.375-4.805-10.14-6.14-2.759-1.327-5.473-1.995-8.138-1.995-3.806 0-8.56 2.714-14.268 8.135a139.01 139.01 0 00-15.7 17.706c-4.757 6.379-9.802 12.275-15.126 17.7-5.332 5.427-9.713 8.138-13.135 8.138-1.718 0-3.86-.479-6.427-1.424-2.566-.951-4.518-1.766-5.858-2.423-1.328-.671-3.607-1.999-6.845-4.004-3.244-1.999-5.048-3.094-5.428-3.285-26.075-14.469-48.438-31.029-67.093-49.676-18.649-18.658-35.211-41.019-49.676-67.097-.19-.381-1.287-2.19-3.284-5.424-2-3.237-3.333-5.518-3.999-6.854-.666-1.331-1.475-3.283-2.425-5.852s-1.427-4.709-1.427-6.424c0-3.424 2.713-7.804 8.138-13.134 5.424-5.327 11.326-10.373 17.7-15.128a138.95 138.95 0 0017.701-15.699c5.424-5.711 8.136-10.467 8.136-14.273 0-2.663-.666-5.378-1.997-8.137-1.332-2.765-3.378-6.139-6.139-10.138-2.762-3.997-4.427-6.374-4.999-7.139a627.13 627.13 0 01-8.848-15.271 1441.4 1441.4 0 01-9.995-18.131c-3.615-6.658-6.468-11.799-8.564-15.415C98.986 9.233 93.943 1.997 90.516.859 89.183.288 87.183 0 84.521 0c-5.142 0-11.85.95-20.129 2.856-8.282 1.903-14.799 3.899-19.558 5.996-9.517 3.995-19.604 15.605-30.264 34.826C4.863 61.566.01 79.271.01 96.78c0 5.135.333 10.131.999 14.989.666 4.853 1.856 10.326 3.571 16.418 1.712 6.09 3.093 10.614 4.137 13.56 1.045 2.948 2.996 8.229 5.852 15.845 2.852 7.614 4.567 12.275 5.138 13.988 6.661 18.654 14.56 35.307 23.695 49.964 15.03 24.362 35.541 49.539 61.521 75.521 25.981 25.98 51.153 46.49 75.517 61.526 14.655 9.134 31.314 17.032 49.965 23.698 1.714.568 6.375 2.279 13.986 5.141 7.614 2.854 12.897 4.805 15.845 5.852 2.949 1.048 7.474 2.43 13.559 4.145 6.098 1.715 11.566 2.905 16.419 3.576 4.856.657 9.853.996 14.989.996 17.508 0 35.214-4.856 53.105-14.562 19.219-10.656 30.826-20.745 34.823-30.269 2.102-4.754 4.093-11.273 5.996-19.555 1.909-8.278 2.857-14.985 2.857-20.126.006-2.673-.281-4.668-.855-6.012z"/></svg><svg viewBox="0 0 512 512" id="twitter" xmlns="http://www.w3.org/2000/svg"><path d="M512 97.248c-19.04 8.352-39.328 13.888-60.48 16.576 21.76-12.992 38.368-33.408 46.176-58.016-20.288 12.096-42.688 20.64-66.56 25.408C411.872 60.704 384.416 48 354.464 48c-58.112 0-104.896 47.168-104.896 104.992 0 8.32.704 16.32 2.432 23.936-87.264-4.256-164.48-46.08-216.352-109.792-9.056 15.712-14.368 33.696-14.368 53.056 0 36.352 18.72 68.576 46.624 87.232-16.864-.32-33.408-5.216-47.424-12.928v1.152c0 51.008 36.384 93.376 84.096 103.136-8.544 2.336-17.856 3.456-27.52 3.456-6.72 0-13.504-.384-19.872-1.792 13.6 41.568 52.192 72.128 98.08 73.12-35.712 27.936-81.056 44.768-130.144 44.768-8.608 0-16.864-.384-25.12-1.44C46.496 446.88 101.6 464 161.024 464c193.152 0 298.752-160 298.752-298.688 0-4.64-.16-9.12-.384-13.568 20.832-14.784 38.336-33.248 52.608-54.496z"/></svg></svg>