<?xml version="1.0" encoding="iso-8859-1"?>
<!-- Generator: Adobe Illustrator 16.0.0, SVG Export Plug-In . SVG Version: 6.00 Build 0)  -->
<!DOCTYPE svg PUBLIC "-//W3C//DTD SVG 1.1//EN" "http://www.w3.org/Graphics/SVG/1.1/DTD/svg11.dtd">
<svg version="1.1" id="Capa_1" xmlns="http://www.w3.org/2000/svg" xmlns:xlink="http://www.w3.org/1999/xlink" x="0px" y="0px"
	 width="86.154px" height="86.154px" viewBox="0 0 86.154 86.154" style="enable-background:new 0 0 86.154 86.154;"
	 xml:space="preserve">
<g>
	<g>
		<path d="M85.278,73.654L47.073,7.483c-0.824-1.434-2.354-2.317-4.011-2.317S39.88,6.05,39.048,7.483L0.621,74.045
			c-0.828,1.434-0.828,3.195,0,4.63c0.828,1.431,2.357,2.313,4.014,2.313h76.862c0.01,0,0.021,0,0.027,0
			c2.557,0,4.63-2.074,4.63-4.627C86.151,75.349,85.829,74.418,85.278,73.654z M10.128,73.918l32.935-57.046l32.935,57.046H10.128z"
			/>
		<path d="M44.941,46.924c0-0.479-0.171-0.894-0.507-1.238c-0.335-0.35-0.742-0.524-1.222-0.524h-5.256
			c-0.482,0-0.886,0.175-1.225,0.524c-0.335,0.345-0.503,0.763-0.503,1.238c0,0.466,0.167,0.869,0.503,1.211
			c0.339,0.346,0.743,0.514,1.225,0.514h3.491v12.874h-3.528c-0.482,0-0.89,0.171-1.225,0.514c-0.335,0.339-0.5,0.746-0.5,1.212
			c0,0.479,0.167,0.886,0.503,1.225c0.335,0.336,0.743,0.503,1.225,0.503h10.513c0.465,0,0.865-0.167,1.211-0.503
			c0.343-0.339,0.51-0.746,0.51-1.225c0-0.479-0.174-0.887-0.52-1.226c-0.35-0.335-0.764-0.503-1.242-0.503h-3.446V46.924H44.941z"
			/>
		<path d="M40.188,36.709c-0.335,0.337-0.503,0.744-0.503,1.223l-0.044,1.521c-0.014,0.438,0.147,0.835,0.486,1.191
			c0.335,0.358,0.75,0.534,1.239,0.534h1.848c0.479,0,0.887-0.176,1.222-0.523c0.336-0.346,0.507-0.763,0.507-1.239v-1.48
			c0-0.479-0.171-0.886-0.507-1.224c-0.335-0.335-0.742-0.503-1.222-0.503h-1.81C40.931,36.206,40.52,36.373,40.188,36.709z"/>
	</g>
</g>
<g>
</g>
<g>
</g>
<g>
</g>
<g>
</g>
<g>
</g>
<g>
</g>
<g>
</g>
<g>
</g>
<g>
</g>
<g>
</g>
<g>
</g>
<g>
</g>
<g>
</g>
<g>
</g>
<g>
</g>
</svg>
