<?xml version="1.0" encoding="iso-8859-1"?>
<!-- Generator: Adobe Illustrator 19.0.0, SVG Export Plug-In . SVG Version: 6.00 Build 0)  -->
<svg version="1.1" id="Capa_1" xmlns="http://www.w3.org/2000/svg" xmlns:xlink="http://www.w3.org/1999/xlink" x="0px" y="0px"
	 viewBox="0 0 511.998 511.998" style="enable-background:new 0 0 511.998 511.998;" xml:space="preserve">
<g>
	<g>
		<g>
			<path d="M387.797,105.457c-19.46-8.651-39.908-14.311-60.662-16.989c3.123-5.037,4.932-10.97,4.932-17.32
				c0-14.692-9.663-27.167-22.967-31.412V31.45h57.065c5.523,0,10-4.477,10-10s-4.477-10-10-10h-57.065V10
				c-0.001-5.523-4.478-10-10.001-10s-10,4.477-10,10v1.454H129.524c-15.076,0-27.34,12.265-27.34,27.34v425.44
				c0,15.076,12.265,27.34,27.34,27.34c15.075,0,27.34-12.265,27.34-27.34V38.793c0-2.543-0.356-5.002-1.009-7.34h133.245v8.286
				c-13.303,4.245-22.967,16.719-22.967,31.412c0,6.35,1.809,12.283,4.932,17.319c-20.754,2.678-41.202,8.339-60.663,16.989
				c-13.375,5.945-22.017,19.244-22.017,33.881v23.718v60.301v29.801v30.5v60.301v23.019c0,14.637,8.643,27.937,22.018,33.881
				c18.916,8.409,38.762,13.981,58.915,16.746V450.2c0,9.487,7.354,17.273,16.659,17.998v13.217
				c0,16.864,13.72,30.583,30.583,30.583h58.774c5.523,0,10-4.477,10-10s-4.477-10-10-10H316.56
				c-5.836,0-10.583-4.748-10.583-10.583v-13.146h4.836c9.963,0,18.069-8.105,18.069-18.069v-6.792
				c5.472-0.059,9.891-4.508,9.891-9.995s-4.419-9.936-9.891-9.995v-5.814c20.154-2.766,40.004-8.338,58.915-16.744
				c13.375-5.945,22.018-19.245,22.018-33.882v-113.82v-113.82C409.815,124.701,401.172,111.401,387.797,105.457z M136.863,464.233
				c0,4.047-3.292,7.34-7.34,7.34s-7.34-3.293-7.34-7.34V38.793c0-4.047,3.293-7.34,7.34-7.34s7.34,3.293,7.34,7.34V464.233z
				 M291.364,60.768c1.834,2.236,4.617,3.663,7.734,3.663s5.901-1.427,7.734-3.663c3.17,2.367,5.234,6.134,5.234,10.383
				c0,7.15-5.817,12.967-12.967,12.967s-12.967-5.817-12.967-12.967C286.132,66.901,288.196,63.134,291.364,60.768z
				 M308.882,423.416L308.882,423.416h-3.014c-5.523,0-10,4.477-10,10s4.477,10,10,10h3.014v4.855h-12.905h-6.659v-28.848
				c3.259,0.146,6.52,0.233,9.782,0.233c3.261,0,6.523-0.088,9.782-0.233V423.416z M389.813,243.161h-23.649
				c-5.523,0-10,4.477-10,10s4.477,10,10,10h23.649v103.82c0,6.742-3.98,12.868-10.141,15.606
				c-16.327,7.258-33.421,12.19-50.791,14.82c-6.636,1.004-13.311,1.676-20,2.005c-6.517,0.321-13.047,0.321-19.564,0
				c-6.689-0.329-13.364-1.001-20-2.005c-17.37-2.629-34.464-7.562-50.792-14.82c-6.16-2.738-10.141-8.864-10.141-15.605v-13.019
				h32.062c5.523,0,10-4.477,10-10s-4.477-10-10-10h-32.062v-40.301h32.062c5.523,0,10-4.477,10-10s-4.477-10-10-10h-32.062v-10.5
				h77.779c5.523,0,10-4.477,10-10s-4.477-10-10-10h-77.779v-9.801h32.062c5.523,0,10-4.477,10-10c0-5.523-4.477-10-10-10h-32.062
				V173.06h32.062c5.523,0,10-4.477,10-10s-4.477-10-10-10h-32.062v-13.718c0-6.742,3.98-12.868,10.142-15.606
				c25.603-11.381,53.088-17.071,80.573-17.071c27.485-0.001,54.97,5.689,80.573,17.07c6.161,2.738,10.141,8.864,10.141,15.606
				V243.161z"/>
			<path d="M335.398,249.34c-0.25-0.61-0.56-1.19-0.92-1.73c-0.36-0.55-0.78-1.06-1.24-1.52c-0.46-0.46-0.97-0.88-1.52-1.24
				c-0.54-0.36-1.13-0.67-1.73-0.92c-0.6-0.25-1.23-0.44-1.87-0.57c-1.29-0.26-2.62-0.26-3.91,0c-0.64,0.13-1.27,0.32-1.87,0.57
				c-0.6,0.25-1.18,0.56-1.72,0.92c-0.55,0.36-1.06,0.78-1.53,1.24c-0.46,0.46-0.87,0.97-1.24,1.52c-0.36,0.54-0.67,1.12-0.92,1.73
				c-0.25,0.6-0.44,1.23-0.57,1.87c-0.13,0.64-0.19,1.3-0.19,1.95c0,0.65,0.06,1.31,0.19,1.96c0.13,0.63,0.32,1.26,0.57,1.87
				c0.25,0.6,0.56,1.18,0.92,1.72c0.37,0.55,0.78,1.06,1.24,1.52c0.47,0.46,0.98,0.88,1.53,1.25c0.54,0.36,1.12,0.67,1.72,0.92
				c0.6,0.25,1.23,0.44,1.87,0.57c0.65,0.13,1.3,0.19,1.96,0.19c0.65,0,1.31-0.06,1.95-0.19s1.27-0.32,1.87-0.57
				c0.6-0.25,1.19-0.56,1.73-0.92c0.55-0.37,1.06-0.79,1.52-1.25c0.46-0.46,0.88-0.97,1.24-1.52c0.36-0.54,0.67-1.12,0.92-1.72
				c0.25-0.61,0.44-1.24,0.57-1.87c0.13-0.65,0.2-1.31,0.2-1.96c0-0.65-0.07-1.31-0.2-1.95
				C335.839,250.57,335.648,249.94,335.398,249.34z"/>
		</g>
	</g>
</g>
<g>
</g>
<g>
</g>
<g>
</g>
<g>
</g>
<g>
</g>
<g>
</g>
<g>
</g>
<g>
</g>
<g>
</g>
<g>
</g>
<g>
</g>
<g>
</g>
<g>
</g>
<g>
</g>
<g>
</g>
</svg>
