<?xml version="1.0" encoding="iso-8859-1"?>
<!-- Generator: Adobe Illustrator 19.0.0, SVG Export Plug-In . SVG Version: 6.00 Build 0)  -->
<svg version="1.1" id="Capa_1" xmlns="http://www.w3.org/2000/svg" xmlns:xlink="http://www.w3.org/1999/xlink" x="0px" y="0px"
	 viewBox="0 0 512 512" style="enable-background:new 0 0 512 512;" xml:space="preserve">
<g>
	<g>
		<g>
			<path d="M502,169.735h-1.014c0.338-1.639,0.516-3.336,0.516-5.073v-18.144c0-13.826-11.248-25.074-25.073-25.074h-57.51v-10.286
				c0-13.833-11.254-25.087-25.087-25.087H240.363c-13.833,0-25.087,11.254-25.087,25.087v10.286H184.81
				c-10.576,0-21.092-1.478-31.256-4.393l-22.597-6.481c-5.306-1.522-10.847,1.546-12.369,6.855
				c-1.522,5.309,1.547,10.847,6.855,12.369l22.597,6.481c11.956,3.43,24.327,5.168,36.77,5.168h30.466v28.291H184.81
				c-10.575,0-21.091-1.478-31.256-4.394l-109.76-31.48v-27.484l9.317,2.672c5.312,1.523,10.847-1.546,12.37-6.854
				c1.522-5.309-1.546-10.847-6.854-12.37l-10.491-3.009c-5.812-1.667-11.915-0.537-16.743,3.102
				c-4.829,3.639-7.599,9.193-7.599,15.239v29.398c0,8.465,5.683,16.007,13.82,18.34l58.715,16.84H60.915
				c-16.224,0-29.422,13.198-29.422,29.421v1.504C13.429,205.148,0,221.496,0,240.929c0,22.88,18.613,41.493,41.493,41.493
				s41.494-18.614,41.494-41.494c0-19.432-13.43-35.78-31.494-40.268v-1.504c0-5.195,4.227-9.421,9.422-9.421h50.983l146.375,73.883
				l-51.719,25.793h-44.335c-11.881,0-21.547,9.666-21.547,21.547v17.497v3v12.721c-18.064,4.488-31.494,20.835-31.494,40.268
				c0,22.879,18.614,41.493,41.494,41.493s41.493-18.614,41.493-41.493c0-19.432-13.429-35.78-31.493-40.268v-2.721h238.247v2.721
				c-18.064,4.488-31.493,20.835-31.493,40.268c0,22.879,18.613,41.493,41.493,41.493s41.493-18.614,41.493-41.493
				c0-19.432-13.429-35.78-31.493-40.268v-12.721v-3v-17.497c0-11.881-9.666-21.547-21.548-21.547h-43.613l-50.888-25.686
				l148.361-73.99h25.198H502c5.522,0,10-4.477,10-10C512,174.212,507.522,169.735,502,169.735z M62.987,240.929
				c0,11.852-9.643,21.494-21.494,21.494C29.642,262.423,20,252.78,20,240.929c0-10.07,6.97-18.52,16.332-20.841
				c1.508,0.912,3.27,1.447,5.161,1.447s3.653-0.535,5.161-1.447C56.017,222.41,62.987,230.859,62.987,240.929z M235.276,111.16
				c0-2.805,2.282-5.087,5.087-5.087h153.469c2.805,0,5.087,2.282,5.087,5.087v10.286H235.276V111.16z M235.276,141.445h163.643
				v28.291H235.276V141.445z M172.165,384.444c0,11.852-9.642,21.493-21.493,21.493s-21.494-9.642-21.494-21.493
				c0-8.241,4.668-15.405,11.494-19.01v2.213c0,5.523,4.478,10,10,10c5.522,0,10-4.477,10-10v-2.213
				C167.497,369.04,172.165,376.203,172.165,384.444z M408.919,377.647c5.522,0,10-4.477,10-10v-2.213
				c6.825,3.606,11.493,10.769,11.493,19.01c0,11.852-9.642,21.493-21.493,21.493s-21.493-9.642-21.493-21.493
				c0-8.241,4.668-15.404,11.493-19.01v2.213C398.919,373.17,403.397,377.647,408.919,377.647z M393.382,309.412h3.989
				c0.854,0,1.548,0.694,1.548,1.547v1.248v9.249h-26.061H187.114h-26.442v-9.162v-1.335c0-0.853,0.694-1.547,1.547-1.547h4.233
				h44.813h137.733H393.382z M309.373,289.412h-58.006l29.177-14.551L309.373,289.412z M280.598,252.485l-124.316-62.749h28.528
				h40.466h181.142L280.598,252.485z M481.502,164.663c0,2.797-2.275,5.073-5.073,5.073h-57.51v-28.291h57.51
				c2.798,0,5.073,2.276,5.073,5.074V164.663z"/>
			<path d="M82.109,113.436c0.25,0.61,0.561,1.19,0.921,1.73c0.369,0.55,0.789,1.06,1.25,1.52c0.46,0.46,0.97,0.88,1.52,1.24
				c0.54,0.36,1.12,0.67,1.72,0.92c0.61,0.25,1.24,0.45,1.88,0.57c0.641,0.13,1.301,0.2,1.95,0.2c0.65,0,1.311-0.07,1.95-0.2
				c0.64-0.12,1.27-0.32,1.87-0.57c0.61-0.25,1.189-0.56,1.729-0.92c0.551-0.36,1.061-0.78,1.521-1.24
				c0.46-0.46,0.88-0.97,1.24-1.52c0.359-0.54,0.67-1.12,0.92-1.73c0.25-0.6,0.45-1.23,0.569-1.87c0.131-0.64,0.2-1.3,0.2-1.95
				c0-0.65-0.069-1.31-0.2-1.95c-0.119-0.64-0.319-1.27-0.569-1.88c-0.25-0.6-0.56-1.181-0.92-1.72c-0.36-0.55-0.78-1.06-1.24-1.52
				c-0.46-0.46-0.97-0.88-1.521-1.25c-0.54-0.36-1.119-0.67-1.729-0.92c-0.601-0.25-1.23-0.44-1.87-0.57c-1.29-0.26-2.61-0.26-3.9,0
				c-0.64,0.13-1.27,0.32-1.88,0.57c-0.6,0.25-1.18,0.56-1.72,0.92c-0.55,0.37-1.06,0.79-1.52,1.25
				c-0.461,0.46-0.881,0.97-1.25,1.52c-0.36,0.54-0.671,1.12-0.921,1.72c-0.25,0.61-0.439,1.24-0.569,1.88
				c-0.13,0.64-0.19,1.3-0.19,1.95c0,0.65,0.061,1.31,0.19,1.95C81.67,112.205,81.859,112.835,82.109,113.436z"/>
		</g>
	</g>
</g>
<g>
</g>
<g>
</g>
<g>
</g>
<g>
</g>
<g>
</g>
<g>
</g>
<g>
</g>
<g>
</g>
<g>
</g>
<g>
</g>
<g>
</g>
<g>
</g>
<g>
</g>
<g>
</g>
<g>
</g>
</svg>
