<?xml version="1.0" encoding="iso-8859-1"?><svg width="1706" height="1706" viewBox="0 0 1706 1706" xmlns="http://www.w3.org/2000/svg" xmlns:xlink="http://www.w3.org/1999/xlink"><view id="experiment-results" viewBox="1024 1194 368.55 368.55"/><svg viewBox="0 0 368.554 368.554" width="368.55" height="368.55" x="1024" y="1194" xmlns="http://www.w3.org/2000/svg"><path d="M292.371 17.347h-44.344V0h-127.5v17.347H76.183c-20.005 0-36.281 16.275-36.281 36.281v278.646c0 20.005 16.275 36.281 36.281 36.281h216.188c20.005 0 36.281-16.275 36.281-36.281V53.627c0-20.005-16.276-36.28-36.281-36.28zM135.527 15h97.5v19.693h-97.5V15zm178.125 317.273c0 11.734-9.546 21.281-21.281 21.281H76.183c-11.734 0-21.281-9.546-21.281-21.281V53.627c0-11.734 9.546-21.281 21.281-21.281h44.344v17.347h127.5V32.347h44.344c11.734 0 21.281 9.546 21.281 21.281v278.645z"/><path d="M249.473 169.358l-7.8 11.849c-1.11 1.686-2.794 1.882-3.467 1.888-.691.001-2.36-.161-3.5-1.826l-.217-.317c-3.948-5.77-10.465-8.865-17.431-8.29-6.967.579-12.883 4.711-15.824 11.053l-4.166 8.982c-1.124 2.426-3.309 2.496-4.194 2.412-.887-.083-3.02-.555-3.677-3.146l-9.067-35.742c-2.199-8.67-9.665-14.475-18.598-14.475h-.107c-8.98.046-16.437 5.941-18.554 14.668l-8.178 33.702c-.642 2.646-2.813 3.112-3.716 3.19-.901.076-3.122-.009-4.208-2.507l-8.062-18.541a19.187 19.187 0 00-17.603-11.542H79.485v15h21.619c1.671 0 3.181.99 3.847 2.523l8.062 18.541c3.343 7.688 10.895 12.188 19.253 11.47 8.353-.721 15.027-6.451 17.003-14.598l8.178-33.702c.698-2.878 3.068-3.201 4.055-3.206 1.025.004 3.36.293 4.088 3.164l9.066 35.742c2.024 7.979 8.628 13.629 16.825 14.393.624.059 1.243.087 1.857.087 7.461 0 14.138-4.223 17.337-11.123l4.166-8.982c.927-1.998 2.727-2.354 3.458-2.416.728-.056 2.565-.006 3.809 1.812l.217.317a19.161 19.161 0 0015.84 8.355h.173a19.162 19.162 0 0015.861-8.64L262 177.604a4.183 4.183 0 013.503-1.888h23.563v-15h-23.563a19.147 19.147 0 00-16.03 8.642zM79.485 271.777h84.688v15H79.485zM79.485 308.443H248.86v15H79.485z"/></svg><view id="facebook" viewBox="682 0 512 512"/><svg height="512" viewBox="0 0 512 512" width="512" x="682" xmlns="http://www.w3.org/2000/svg"><path d="M475.074 0H36.926C16.53 0 0 16.531 0 36.926v438.148C0 495.47 16.531 512 36.926 512H273.5V314H207v-77.5h66.5v-57.035c0-66.14 40.379-102.14 99.379-102.14 28.258 0 52.543 2.105 59.621 3.046V149.5h-40.684c-32.101 0-38.316 15.254-38.316 37.64v49.36h76.75l-10 77.5H353.5v198h121.574C495.47 512 512 495.469 512 475.074V36.926C512 16.53 495.469 0 475.074 0zm0 0"/></svg><view id="flask" viewBox="0 682 512 512"/><svg height="512" viewBox="-74 0 512 512" width="512" y="682" xmlns="http://www.w3.org/2000/svg"><path d="M361.414 443.59l-108.27-263.902a120.42 120.42 0 01-9.05-45.91V64.02c0-7.512 2.926-14.575 8.238-19.887 6.477-6.477 10.047-15.09 10.047-24.25V10c0-5.523-4.48-10-10-10H112.758c-5.524 0-10 4.477-10 10v9.883c0 9.16 3.566 17.773 10.043 24.25 5.312 5.312 8.238 12.375 8.238 19.89v69.754c0 15.825-3.043 31.27-9.05 45.91l-29.75 72.516-.036.082L3.72 443.59a49.507 49.507 0 004.695 46.441A49.503 49.503 0 0049.598 512h265.937a49.51 49.51 0 0041.188-21.969 49.518 49.518 0 004.691-46.441zM130.492 187.277c7-17.058 10.547-35.058 10.547-53.5V64.02c0-12.852-5.004-24.938-14.094-34.028A14.211 14.211 0 01122.758 20h119.62a14.206 14.206 0 01-4.19 9.992c-9.086 9.09-14.094 21.172-14.094 34.028v69.753c0 18.442 3.55 36.442 10.547 53.5l24.144 58.852H106.348zM340.11 478.891C334.523 487.223 325.566 492 315.535 492H49.598c-10.028 0-18.985-4.777-24.575-13.11-4.214-6.285-5.824-13.574-4.73-20.761H36.77c5.52 0 10-4.48 10-10 0-5.524-4.48-10-10-10h-9.188l11.484-28h16.868c5.523 0 10-4.48 10-10 0-5.524-4.477-10-10-10h-8.66l11.484-28h17.344c5.523 0 10-4.48 10-10 0-5.524-4.477-10-10-10h-9.137l11.488-28h17.813c5.523 0 10-4.48 10-10 0-5.524-4.477-10-10-10h-9.61l11.489-28h168.843l75.922 185.055c3.805 9.277 2.785 19.379-2.8 27.707zm0 0"/><path d="M312.031 444.215a10.001 10.001 0 00-18.511 7.574l.054.125a10.002 10.002 0 0013.043 5.469c5.11-2.094 7.559-7.934 5.465-13.043zm0 0M297.898 409.762l-35.812-87.29c-2.094-5.109-7.934-7.554-13.047-5.456-5.11 2.093-7.55 7.937-5.457 13.047l35.813 87.289c1.585 3.87 5.316 6.207 9.257 6.207a9.925 9.925 0 003.79-.75c5.109-2.094 7.554-7.938 5.456-13.047zm0 0"/></svg><view id="heart" viewBox="512 682 512 512"/><svg viewBox="0 0 512.001 512.001" width="512" height="512" x="512" y="682" xmlns="http://www.w3.org/2000/svg"><path d="M402.178 28.989C385.544 10.295 362.487 0 337.253 0c-28.166 0-52.581 13.318-70.606 38.513a120.76 120.76 0 00-3.801 5.648 119.433 119.433 0 00-3.8-5.648C241.02 13.318 216.605 0 188.439 0c-25.234 0-48.292 10.295-64.925 28.988-15.784 17.74-24.478 41.456-24.478 66.779 0 27.519 10.679 52.912 33.604 79.916 20.003 23.56 48.695 47.777 81.919 75.819 12.277 10.363 24.973 21.078 38.464 32.771a14.967 14.967 0 009.822 3.664 14.97 14.97 0 009.822-3.664c13.489-11.69 26.183-22.405 38.46-32.766 21.337-18.01 39.764-33.563 55.755-48.649 31.046-29.292 59.774-62.539 59.774-107.09 0-25.324-8.693-49.039-24.478-66.779zm-55.879 152.052c-15.386 14.517-33.52 29.822-54.517 47.544-9.341 7.883-18.921 15.969-28.936 24.557-10.017-8.587-19.6-16.675-28.941-24.56-65.399-55.199-104.875-88.517-104.875-132.814-.002-37.497 25.538-65.773 59.408-65.773 18.095 0 33.484 8.518 45.739 25.317 10.058 13.786 14.187 28.078 14.215 28.174a14.998 14.998 0 0028.906 0c.148-.535 15.33-53.491 59.955-53.491 33.869 0 59.41 28.277 59.41 65.773 0 27.169-14.121 51.077-50.364 85.273zM466.954 302.047c-12.441 0-24.442 5.223-32.925 14.329l-44.077 47.318c-5.697-18.316-22.805-31.653-42.971-31.653h-69.28a39.843 39.843 0 01-26.334-9.937c-39.163-34.464-98.029-34.767-137.564-.953-8.153-11.543-21.587-19.103-36.763-19.103H15.054c-8.282 0-14.997 6.714-14.997 14.997v179.96c0 8.282 6.714 14.997 14.997 14.997H77.04c13.468 0 25.564-5.957 33.816-15.365l8.881 2.496a344.898 344.898 0 0093.335 12.868H346.98c32.866 0 64.261-15.698 83.981-41.991l71.999-95.997.004-.006c5.875-7.834 8.98-17.16 8.98-26.971 0-24.807-20.183-44.989-44.99-44.989zM92.037 467.01c0 8.269-6.727 14.997-14.997 14.997H30.05V332.04h46.99c8.269 0 14.997 6.727 14.997 14.997V467.01zm386.93-110.996l-.002.002-71.998 95.999c-14.086 18.781-36.511 29.993-59.987 29.993H213.075a314.925 314.925 0 01-85.219-11.749l-5.865-1.649c.019-.532.041-1.063.041-1.599V353.816l10.451-9.197c28.24-24.85 70.831-24.852 99.073 0a69.815 69.815 0 0046.147 17.413h69.28c8.269 0 14.997 6.728 14.997 14.997s-6.727 14.997-14.997 14.997H240.398c-8.282 0-14.997 6.714-14.997 14.997s6.714 14.997 14.997 14.997h116.634c12.441 0 24.44-5.221 32.921-14.325l66.023-70.876c2.871-3.082 6.77-4.779 10.978-4.779 8.269 0 14.997 6.727 14.997 14.997 0 3.27-1.032 6.374-2.984 8.977z"/></svg><view id="instagram" viewBox="1194 0 512 512"/><svg height="512" viewBox="0 0 512 512" width="512" x="1194" xmlns="http://www.w3.org/2000/svg"><path d="M301 256c0 24.852-20.148 45-45 45s-45-20.148-45-45 20.148-45 45-45 45 20.148 45 45zm0 0"/><path d="M332 120H180c-33.086 0-60 26.914-60 60v152c0 33.086 26.914 60 60 60h152c33.086 0 60-26.914 60-60V180c0-33.086-26.914-60-60-60zm-76 211c-41.355 0-75-33.645-75-75s33.645-75 75-75 75 33.645 75 75-33.645 75-75 75zm86-146c-8.285 0-15-6.715-15-15s6.715-15 15-15 15 6.715 15 15-6.715 15-15 15zm0 0"/><path d="M377 0H135C60.562 0 0 60.563 0 135v242c0 74.438 60.563 135 135 135h242c74.438 0 135-60.563 135-135V135C512 60.562 451.437 0 377 0zm45 332c0 49.625-40.375 90-90 90H180c-49.625 0-90-40.375-90-90V180c0-49.625 40.375-90 90-90h152c49.625 0 90 40.375 90 90zm0 0"/></svg><view id="intravenous" viewBox="1194 512 512 512"/><svg viewBox="0 0 511.998 511.998" width="512" height="512" x="1194" y="512" xmlns="http://www.w3.org/2000/svg"><path d="M387.797 105.457a217.974 217.974 0 00-60.662-16.989 32.765 32.765 0 004.932-17.32c0-14.692-9.663-27.167-22.967-31.412V31.45h57.065c5.523 0 10-4.477 10-10s-4.477-10-10-10H309.1V10c-.001-5.523-4.478-10-10.001-10s-10 4.477-10 10v1.454H129.524c-15.076 0-27.34 12.265-27.34 27.34v425.44c0 15.076 12.265 27.34 27.34 27.34s27.34-12.265 27.34-27.34V38.793c0-2.543-.356-5.002-1.009-7.34H289.1v8.286c-13.303 4.245-22.967 16.719-22.967 31.412 0 6.35 1.809 12.283 4.932 17.319a218.025 218.025 0 00-60.663 16.989c-13.375 5.945-22.017 19.244-22.017 33.881v227.64c0 14.637 8.643 27.937 22.018 33.881a217.903 217.903 0 0058.915 16.746V450.2c0 9.487 7.354 17.273 16.659 17.998v13.217c0 16.864 13.72 30.583 30.583 30.583h58.774c5.523 0 10-4.477 10-10s-4.477-10-10-10H316.56c-5.836 0-10.583-4.748-10.583-10.583v-13.146h4.836c9.963 0 18.069-8.105 18.069-18.069v-6.792c5.472-.059 9.891-4.508 9.891-9.995s-4.419-9.936-9.891-9.995v-5.814c20.154-2.766 40.004-8.338 58.915-16.744 13.375-5.945 22.018-19.245 22.018-33.882v-227.64c0-14.637-8.643-27.937-22.018-33.881zM136.863 464.233c0 4.047-3.292 7.34-7.34 7.34s-7.34-3.293-7.34-7.34V38.793c0-4.047 3.293-7.34 7.34-7.34s7.34 3.293 7.34 7.34v425.44zM291.364 60.768c1.834 2.236 4.617 3.663 7.734 3.663s5.901-1.427 7.734-3.663c3.17 2.367 5.234 6.134 5.234 10.383 0 7.15-5.817 12.967-12.967 12.967s-12.967-5.817-12.967-12.967c0-4.25 2.064-8.017 5.232-10.383zm17.518 362.648h-3.014c-5.523 0-10 4.477-10 10s4.477 10 10 10h3.014v4.855h-19.564v-28.848c3.259.146 6.52.233 9.782.233 3.261 0 6.523-.088 9.782-.233v3.993zm80.931-180.255h-23.649c-5.523 0-10 4.477-10 10s4.477 10 10 10h23.649v103.82c0 6.742-3.98 12.868-10.141 15.606a197.958 197.958 0 01-50.791 14.82 199.077 199.077 0 01-20 2.005c-6.517.321-13.047.321-19.564 0a199.077 199.077 0 01-20-2.005 197.936 197.936 0 01-50.792-14.82 17.093 17.093 0 01-10.141-15.605v-13.019h32.062c5.523 0 10-4.477 10-10s-4.477-10-10-10h-32.062v-40.301h32.062c5.523 0 10-4.477 10-10s-4.477-10-10-10h-32.062v-10.5h77.779c5.523 0 10-4.477 10-10s-4.477-10-10-10h-77.779v-9.801h32.062c5.523 0 10-4.477 10-10s-4.477-10-10-10h-32.062V173.06h32.062c5.523 0 10-4.477 10-10s-4.477-10-10-10h-32.062v-13.718a17.09 17.09 0 0110.142-15.606c25.603-11.381 53.088-17.071 80.573-17.071 27.485-.001 54.97 5.689 80.573 17.07a17.092 17.092 0 0110.141 15.606v103.82z"/><path d="M335.398 249.34a9.87 9.87 0 00-.92-1.73 9.57 9.57 0 00-1.24-1.52 9.57 9.57 0 00-1.52-1.24 10.098 10.098 0 00-3.6-1.49 9.898 9.898 0 00-3.91 0c-.64.13-1.27.32-1.87.57-.6.25-1.18.56-1.72.92-.55.36-1.06.78-1.53 1.24-.46.46-.87.97-1.24 1.52a9.87 9.87 0 00-.92 1.73 9.84 9.84 0 00-.76 3.82c0 .65.06 1.31.19 1.96.13.63.32 1.26.57 1.87a10.146 10.146 0 002.16 3.24c.47.46.98.88 1.53 1.25.54.36 1.12.67 1.72.92.6.25 1.23.44 1.87.57.65.13 1.3.19 1.96.19a9.84 9.84 0 003.82-.76c.6-.25 1.19-.56 1.73-.92.55-.37 1.06-.79 1.52-1.25.46-.46.88-.97 1.24-1.52.36-.54.67-1.12.92-1.72.25-.61.44-1.24.57-1.87.13-.65.2-1.31.2-1.96 0-.65-.07-1.31-.2-1.95-.129-.64-.32-1.27-.57-1.87z"/></svg><view id="medical-result" viewBox="1194 1024 36.82 36.82"/><svg viewBox="0 0 36.822 36.822" width="36.82" height="36.82" x="1194" y="1024" xmlns="http://www.w3.org/2000/svg"><path d="M29.343 36.822H7.479a2.503 2.503 0 01-2.5-2.5V6.029c0-1.378 1.122-2.5 2.5-2.5h3.682a.5.5 0 010 1H7.479c-.827 0-1.5.673-1.5 1.5v28.293c0 .827.673 1.5 1.5 1.5h21.863c.827 0 1.5-.673 1.5-1.5V6.029c0-.827-.673-1.5-1.5-1.5H25.66a.5.5 0 010-1h3.682c1.378 0 2.5 1.122 2.5 2.5v28.293a2.501 2.501 0 01-2.499 2.5z"/><path d="M25.661 8.396h-14.5a.5.5 0 01-.5-.5V2.688a.5.5 0 01.5-.5h4.609C16.005.944 17.1 0 18.411 0s2.406.944 2.641 2.188h4.609a.5.5 0 01.5.5v5.209a.499.499 0 01-.5.499zm-14-1h13.5V3.188h-4.563a.5.5 0 01-.5-.5 1.688 1.688 0 00-3.375 0 .5.5 0 01-.5.5H11.66v4.208zM16.661 27.356a.5.5 0 01-.457-.297l-2.368-5.33H9.661a.5.5 0 010-1h4.5a.5.5 0 01.457.297l1.99 4.479 3.582-10.148a.502.502 0 01.447-.333.48.48 0 01.478.288l2.532 5.418h3.515a.5.5 0 010 1h-3.833a.5.5 0 01-.453-.288l-2.149-4.599-3.593 10.181a.5.5 0 01-.452.333l-.021-.001z"/></svg><view id="messenger" viewBox="0 0 682 682"/><svg height="682" viewBox="-21 -28 682.667 682" width="682" xmlns="http://www.w3.org/2000/svg"><path d="M545.602 84.629C485.242 30 405.125-.082 320-.082S154.758 30 94.398 84.628C33.523 139.728 0 213.134 0 291.333c0 58.578 18.863 114.742 54.633 162.941L27.14 626.188l173.918-64.247C238.887 575.75 278.863 582.75 320 582.75c85.125 0 165.242-30.086 225.602-84.715C606.477 442.938 640 369.531 640 291.332s-33.523-151.605-94.398-206.703zM348.047 375.027l-70.738-55.343-169.204 66.964 193.606-192.562 71.594 57.168 154.875-60.047zm0 0"/></svg><view id="stretcher" viewBox="0 1194 512 512"/><svg viewBox="0 0 512 512" width="512" height="512" y="1194" xmlns="http://www.w3.org/2000/svg"><path d="M502 169.735h-1.014a25.1 25.1 0 00.516-5.073v-18.144c0-13.826-11.248-25.074-25.073-25.074h-57.51v-10.286c0-13.833-11.254-25.087-25.087-25.087H240.363c-13.833 0-25.087 11.254-25.087 25.087v10.286H184.81a113.352 113.352 0 01-31.256-4.393l-22.597-6.481c-5.306-1.522-10.847 1.546-12.369 6.855-1.522 5.309 1.547 10.847 6.855 12.369l22.597 6.481a133.308 133.308 0 0036.77 5.168h30.466v28.291H184.81a113.325 113.325 0 01-31.256-4.394l-109.76-31.48v-27.484l9.317 2.672c5.312 1.523 10.847-1.546 12.37-6.854 1.522-5.309-1.546-10.847-6.854-12.37l-10.491-3.009c-5.812-1.667-11.915-.537-16.743 3.102-4.829 3.639-7.599 9.193-7.599 15.239v29.398c0 8.465 5.683 16.007 13.82 18.34l58.715 16.84H60.915c-16.224 0-29.422 13.198-29.422 29.421v1.504C13.429 205.148 0 221.496 0 240.929c0 22.88 18.613 41.493 41.493 41.493s41.494-18.614 41.494-41.494c0-19.432-13.43-35.78-31.494-40.268v-1.504c0-5.195 4.227-9.421 9.422-9.421h50.983l146.375 73.883-51.719 25.793h-44.335c-11.881 0-21.547 9.666-21.547 21.547v33.218c-18.064 4.488-31.494 20.835-31.494 40.268 0 22.879 18.614 41.493 41.494 41.493s41.493-18.614 41.493-41.493c0-19.432-13.429-35.78-31.493-40.268v-2.721h238.247v2.721c-18.064 4.488-31.493 20.835-31.493 40.268 0 22.879 18.613 41.493 41.493 41.493s41.493-18.614 41.493-41.493c0-19.432-13.429-35.78-31.493-40.268v-33.218c0-11.881-9.666-21.547-21.548-21.547h-43.613l-50.888-25.686 148.361-73.99H502c5.522 0 10-4.477 10-10s-4.478-10-10-10zM62.987 240.929c0 11.852-9.643 21.494-21.494 21.494-11.851 0-21.493-9.643-21.493-21.494 0-10.07 6.97-18.52 16.332-20.841 1.508.912 3.27 1.447 5.161 1.447s3.653-.535 5.161-1.447c9.363 2.322 16.333 10.771 16.333 20.841zM235.276 111.16a5.093 5.093 0 015.087-5.087h153.469a5.093 5.093 0 015.087 5.087v10.286H235.276V111.16zm0 30.285h163.643v28.291H235.276v-28.291zm-63.111 242.999c0 11.852-9.642 21.493-21.493 21.493s-21.494-9.642-21.494-21.493c0-8.241 4.668-15.405 11.494-19.01v2.213c0 5.523 4.478 10 10 10s10-4.477 10-10v-2.213c6.825 3.606 11.493 10.769 11.493 19.01zm236.754-6.797c5.522 0 10-4.477 10-10v-2.213c6.825 3.606 11.493 10.769 11.493 19.01 0 11.852-9.642 21.493-21.493 21.493s-21.493-9.642-21.493-21.493c0-8.241 4.668-15.404 11.493-19.01v2.213c0 5.523 4.478 10 10 10zm-15.537-68.235h3.989c.854 0 1.548.694 1.548 1.547v10.497H160.672v-10.497c0-.853.694-1.547 1.547-1.547h231.163zm-84.009-20h-58.006l29.177-14.551 28.829 14.551zm-28.775-36.927l-124.316-62.749h250.136l-125.82 62.749zm200.904-87.822a5.078 5.078 0 01-5.073 5.073h-57.51v-28.291h57.51a5.079 5.079 0 015.073 5.074v18.144z"/><path d="M82.109 113.436a9.874 9.874 0 002.171 3.25c.46.46.97.88 1.52 1.24.54.36 1.12.67 1.72.92.61.25 1.24.45 1.88.57.641.13 1.301.2 1.95.2.65 0 1.311-.07 1.95-.2.64-.12 1.27-.32 1.87-.57a9.86 9.86 0 001.729-.92 9.533 9.533 0 001.521-1.24c.46-.46.88-.97 1.24-1.52.359-.54.67-1.12.92-1.73.25-.6.45-1.23.569-1.87.131-.64.2-1.3.2-1.95 0-.65-.069-1.31-.2-1.95a9.617 9.617 0 00-.569-1.88c-.25-.6-.56-1.181-.92-1.72a9.57 9.57 0 00-1.24-1.52 9.86 9.86 0 00-3.25-2.17c-.601-.25-1.23-.44-1.87-.57a9.847 9.847 0 00-3.9 0c-.64.13-1.27.32-1.88.57-.6.25-1.18.56-1.72.92a10.092 10.092 0 00-2.77 2.77c-.36.54-.671 1.12-.921 1.72-.25.61-.439 1.24-.569 1.88-.13.64-.19 1.3-.19 1.95a9.915 9.915 0 00.759 3.82z"/></svg><view id="twitter" viewBox="512 1194 512 512"/><svg viewBox="0 0 512 512" width="512" height="512" x="512" y="1194" xmlns="http://www.w3.org/2000/svg"><path d="M512 97.248c-19.04 8.352-39.328 13.888-60.48 16.576 21.76-12.992 38.368-33.408 46.176-58.016-20.288 12.096-42.688 20.64-66.56 25.408C411.872 60.704 384.416 48 354.464 48c-58.112 0-104.896 47.168-104.896 104.992 0 8.32.704 16.32 2.432 23.936-87.264-4.256-164.48-46.08-216.352-109.792-9.056 15.712-14.368 33.696-14.368 53.056 0 36.352 18.72 68.576 46.624 87.232-16.864-.32-33.408-5.216-47.424-12.928v1.152c0 51.008 36.384 93.376 84.096 103.136-8.544 2.336-17.856 3.456-27.52 3.456-6.72 0-13.504-.384-19.872-1.792 13.6 41.568 52.192 72.128 98.08 73.12-35.712 27.936-81.056 44.768-130.144 44.768-8.608 0-16.864-.384-25.12-1.44C46.496 446.88 101.6 464 161.024 464c193.152 0 298.752-160 298.752-298.688 0-4.64-.16-9.12-.384-13.568 20.832-14.784 38.336-33.248 52.608-54.496z"/></svg></svg>